<svg width="20" height="20" viewBox="0 0 20 20" fill="none" xmlns="http://www.w3.org/2000/svg"><path fill-rule="evenodd" clip-rule="evenodd" d="M10 19.167A9.167 9.167 0 1 0 10 .833a9.167 9.167 0 0 0 0 18.334zm3.962-9.513c.136-.405.205-.84.205-1.307 0-.571-.08-1.064-.237-1.48a2.623 2.623 0 0 0-.677-1.042 2.758 2.758 0 0 0-1.056-.623A4.424 4.424 0 0 0 10.81 5H7.5v5h-.833v1.667H7.5v.833h-.833v1.667H7.5v1.666h1.797v-1.666H12.5V12.5H9.297v-.822h1.607c.547 0 1.025-.084 1.434-.25.41-.176.746-.415 1.01-.716.272-.3.477-.653.614-1.058zm-1.97-2.568c.262.28.394.69.394 1.23 0 .518-.132.933-.394 1.245-.252.3-.647.451-1.182.451H9.297V6.65h1.497c.536 0 .935.145 1.198.436z" fill="#A7E200"/></svg>