<svg width="24" height="24" viewBox="0 0 24 24" fill="none" xmlns="http://www.w3.org/2000/svg"><path d="M20.4 2.274V0h-.8v2.032A2.82 2.82 0 0 0 19.2 2h-.8V0h-.8v2h-1.2V0h-.8v2h-1.2V0h-.8v2h-1.2V0h-.8v2h-1.2V0h-.8v2H8.4V0h-.8v2H6.4V0h-.8v2h-.8a2.82 2.82 0 0 0-.4.032V0h-.8v2.274A2.814 2.814 0 0 0 2.274 3.6H0v.8h2.032A2.82 2.82 0 0 0 2 4.8v.8H0v.8h2v1.2H0v.8h2v1.2H0v.8h2v1.2H0v.8h2v1.2H0v.8h2v1.2H0v.8h2v1.2H0v.8h2v.8c.001.134.012.268.032.4H0v.8h2.274c.277.58.745 1.049 1.326 1.326V24h.8v-2.032c.132.02.266.03.4.032h.8v2h.8v-2h1.2v2h.8v-2h1.2v2h.8v-2h1.2v2h.8v-2h1.2v2h.8v-2h1.2v2h.8v-2h1.2v2h.8v-2h.8c.134-.001.268-.012.4-.032V24h.8v-2.274a2.814 2.814 0 0 0 1.326-1.326H24v-.8h-2.032c.02-.133.03-.266.032-.4v-.8h2v-.8h-2v-1.2h2v-.8h-2v-1.2h2v-.8h-2v-1.2h2v-.8h-2v-1.2h2v-.8h-2V8.4h2v-.8h-2V6.4h2v-.8h-2v-.8a2.805 2.805 0 0 0-.032-.4H24v-.8h-2.274A2.814 2.814 0 0 0 20.4 2.274zm.8 16.926a2.003 2.003 0 0 1-2 2H4.8a2.003 2.003 0 0 1-2-2V4.8a2.003 2.003 0 0 1 2-2h14.4a2.003 2.003 0 0 1 2 2v14.4z" fill="#A7E200"/><path d="M18.8 4H5.2A1.2 1.2 0 0 0 4 5.2v13.6A1.2 1.2 0 0 0 5.2 20h13.6a1.2 1.2 0 0 0 1.2-1.2V5.2A1.2 1.2 0 0 0 18.8 4zm.4 14.8a.4.4 0 0 1-.4.4H5.2a.4.4 0 0 1-.4-.4V5.2a.4.4 0 0 1 .4-.4h13.6a.4.4 0 0 1 .4.4v13.6z" fill="#A7E200"/><path d="M17.6 5.6h.8v.8h-.8v-.8zm-12 12h.8v.8h-.8v-.8zm0-11.2v1.2h.8V6.4h1.2v-.8H6.4a.8.8 0 0 0-.8.8zm12 11.2h-1.2v.8h2v-2h-.8v1.2z" fill="#A7E200"/></svg>