<svg width="24" height="24" viewBox="0 0 24 24" fill="none" xmlns="http://www.w3.org/2000/svg"><path d="M22.8 0H1.2A1.2 1.2 0 0 0 0 1.2v21.6A1.2 1.2 0 0 0 1.2 24h21.6a1.2 1.2 0 0 0 1.2-1.2V1.2A1.2 1.2 0 0 0 22.8 0zm.4 22.8a.4.4 0 0 1-.4.4H1.2a.4.4 0 0 1-.4-.4V1.2c0-.22.18-.4.4-.4h21.6c.22 0 .4.18.4.4v21.6z" fill="#A7E200"/><path d="M21.2 2.4H8.4a.4.4 0 0 0-.4.4v1.6c0 .22.179.4.4.4h12.8a.4.4 0 0 0 .4-.4V2.8a.4.4 0 0 0-.4-.4zM20.8 4h-12v-.8h12V4zm.4 1.6H8.4A.4.4 0 0 0 8 6v1.6c0 .22.179.4.4.4h12.8a.4.4 0 0 0 .4-.4V6a.4.4 0 0 0-.4-.4zm-.4 1.6h-12v-.8h12v.8zm.4 1.6H8.4a.4.4 0 0 0-.4.4v1.6c0 .22.179.4.4.4h12.8a.4.4 0 0 0 .4-.4V9.2a.4.4 0 0 0-.4-.4zm-.4 1.6h-12v-.8h12v.8zm-.4 2.4a1.2 1.2 0 1 0 0 2.4 1.2 1.2 0 0 0 0-2.4zm0 1.6a.4.4 0 1 1 0-.8.4.4 0 0 1 0 .8zm0 1.6a1.2 1.2 0 1 0 0 2.4 1.2 1.2 0 0 0 0-2.4zm0 1.6a.4.4 0 1 1 0-.8.4.4 0 0 1 0 .8zm0 1.6a1.2 1.2 0 1 0 0 2.4 1.2 1.2 0 0 0 0-2.4zm0 1.6a.4.4 0 1 1 0-.8.4.4 0 0 1 0 .8zm-2.8-8h-7.2a.8.8 0 0 0-.8.8v7.2a.8.8 0 0 0 .8.8h7.2a.8.8 0 0 0 .8-.8v-7.2a.8.8 0 0 0-.8-.8zm0 8h-7.2v-7.2h7.2v7.2z" fill="#A7E200"/><path d="M12.4 19.6h3.2a.8.8 0 0 0 .8-.8v-3.2a.8.8 0 0 0-.8-.8h-3.2a.8.8 0 0 0-.8.8v3.2a.8.8 0 0 0 .8.8zm0-4h3.2v3.2h-3.2v-3.2zm-9.6-4.4h4a.4.4 0 0 0 .4-.4v-4a.4.4 0 0 0-.4-.4h-4a.4.4 0 0 0-.4.4v4c0 .221.18.4.4.4zm.4-4h3.2v3.2H3.2V7.2zm-.4-1.6h4a.4.4 0 0 0 .4-.4V2.8a.4.4 0 0 0-.4-.4h-4a.4.4 0 0 0-.4.4v2.4c0 .22.18.4.4.4zm.4-2.4h3.2v1.6H3.2V3.2zm4.4 10.4H2.8a.4.4 0 0 0-.4.4v7.2c0 .221.18.4.4.4h4.8a.4.4 0 0 0 .4-.4V14a.4.4 0 0 0-.4-.4zm-2 3.2h1.6v1.6H5.6v-1.6zm-.8 1.6H3.2v-1.6h1.6v1.6zm2.4-4V16H5.6v-1.6h1.6zm-4 0h1.6V16H3.2v-1.6zm0 4.8h1.6v1.6H3.2v-1.6zm4 1.6H5.6v-1.6h1.6v1.6z" fill="#A7E200"/></svg>