<svg width="32" height="32" viewBox="0 0 32 32" fill="none" xmlns="http://www.w3.org/2000/svg"><path d="M22.044 31A1.957 1.957 0 0 0 24 29.044V2.956A1.957 1.957 0 0 0 22.044 1H9.957A1.957 1.957 0 0 0 8 2.955v26.09A1.958 1.958 0 0 0 9.956 31h12.088zM9 29.044V2.956A.957.957 0 0 1 9.956 2h12.088a.956.956 0 0 1 .956.955v26.09a.956.956 0 0 1-.956.955H9.957A.956.956 0 0 1 9 29.044z" fill="#A7E200"/><path d="M10.5 10h11a.5.5 0 0 0 .5-.5v-6a.5.5 0 0 0-.5-.5h-11a.5.5 0 0 0-.5.5v6a.5.5 0 0 0 .5.5zM21 9H11V7h10v2zM11 4h10v2H11V4zm6.75 15.969l-.5.865a2.5 2.5 0 1 1-2.5 0l-.5-.865a3.5 3.5 0 1 0 3.5 0z" fill="#A7E200"/><path d="M15.5 18.5h1V23h-1v-4.5zm-2 9.5H15v1h-1.5v-1zm3.5 0h1.5v1H17v-1zm-1-17a2 2 0 0 0-1.929 1.5H11.5v1h2.571a1.99 1.99 0 0 0 3.858 0H20.5v-1h-2.571A2 2 0 0 0 16 11zm0 3a1 1 0 1 1 0-2 1 1 0 0 1 0 2z" fill="#A7E200"/></svg>