<svg width="24" height="24" viewBox="0 0 24 24" fill="none" xmlns="http://www.w3.org/2000/svg"><path d="M2.438 18.343a.374.374 0 0 0 .53 0l.297-.297a.156.156 0 1 1 .22.22l-.298.297a.375.375 0 0 0 0 .53l.938.938a.376.376 0 0 0 .265.11.374.374 0 0 0 .266-.11l.264-.266a.154.154 0 0 1 .11-.045.155.155 0 0 1 .11.265l-.265.265a.375.375 0 0 0 0 .53l2.36 2.36c.07.07.166.11.265.11h.002a.373.373 0 0 0 .266-.113l15.375-15.75a.375.375 0 0 0-.003-.527l-2.25-2.25a.375.375 0 0 0-.53 0l-.22.22a.155.155 0 1 1-.22-.22l.22-.22a.375.375 0 0 0 0-.53l-.75-.75a.375.375 0 0 0-.53 0l-.22.22a.155.155 0 1 1-.22-.22l.22-.22a.375.375 0 0 0 0-.53l-1.5-1.5a.375.375 0 0 0-.527-.003L.863 16.232a.374.374 0 0 0-.003.533l1.578 1.578zm16.708-9.167l.608.609-.587.602-.607-.607.586-.604zm.522-.538l.586-.604.612.612-.588.602-.61-.61zm-1.63 1.68l.605.606-.588.601-.603-.604.585-.603zm-1.109 1.142l.603.602-.588.602-.6-.6.585-.604zm-1.108 1.142l.6.599-.588.601-.598-.597.586-.603zm-1.108 1.141l.596.596-.588.602-.594-.594.586-.604zm-1.108 1.142l.592.593-.587.601-.591-.59.586-.604zm-1.109 1.142l.59.59-.588.601-.587-.587.585-.604zm-1.108 1.142l.586.586-.587.602-.585-.585.586-.603zM10.28 18.31l.583.582-.588.602-.58-.58.585-.604zm-1.108 1.141l.58.58-.773.791-.578-.577.77-.794zm7.7-17.8l.974.975a.905.905 0 0 0 1.277 1.277l.223.223a.905.905 0 0 0 1.277 1.277l1.725 1.724-.958.982-.875-.875a.374.374 0 0 0-.265-.11h-.003a.375.375 0 0 0-.266.114L7.606 19.989a.375.375 0 0 0 .004.526l.845.845-.958.982-1.827-1.827a.905.905 0 0 0-.64-1.545.9.9 0 0 0-.64.265l-.407-.407.032-.033a.905.905 0 0 0-1.28-1.28l-.032.032-1.044-1.044 15.213-14.85z" fill="#A7E200"/><path d="M6.485 19.39a.375.375 0 0 0 .53 0l5.625-5.625a.376.376 0 0 0 0-.53l-3-3a.375.375 0 0 0-.53 0L3.485 15.86a.375.375 0 0 0 0 .53l3 3zm2.89-8.36l2.47 2.47-1.345 1.345-2.47-2.47 1.345-1.345zM7.5 12.905l2.47 2.47-1.345 1.345-2.47-2.47L7.5 12.905zM5.625 14.78l2.47 2.47-1.345 1.345-2.47-2.47 1.345-1.345zm7.61-2.14a.375.375 0 0 0 .53 0l5.625-5.625a.376.376 0 0 0 0-.53l-3-3a.375.375 0 0 0-.53 0L10.235 9.11a.376.376 0 0 0 0 .53l3 3zm2.89-8.36l2.47 2.47-1.345 1.345-2.47-2.47 1.345-1.345zM14.25 6.155l2.47 2.47-1.345 1.345-2.47-2.47 1.345-1.345zM12.375 8.03l2.47 2.47-1.345 1.345-2.47-2.47 1.345-1.345z" fill="#A7E200"/></svg>