<svg width="32" height="32" viewBox="0 0 32 32" fill="none" xmlns="http://www.w3.org/2000/svg"><g clip-path="url(#a)" fill="#A7E200"><path d="M9.6 32h4.267a.533.533 0 0 0 .533-.533 1.6 1.6 0 0 1 3.2 0c0 .294.239.533.533.533H22.4c.59 0 1.067-.478 1.067-1.067v-3.2c0-.589-.478-1.066-1.067-1.066V25.6c.59 0 1.067-.478 1.067-1.067v-6.4c0-.589-.478-1.066-1.067-1.066V16c.59 0 1.067-.478 1.067-1.067v-6.4c0-.589-.478-1.066-1.067-1.066V6.4c.59 0 1.067-.478 1.067-1.067V4.267c0-.59-.478-1.067-1.067-1.067V1.067C22.4.477 21.923 0 21.333 0H10.667C10.077 0 9.6.478 9.6 1.067V3.2c-.589 0-1.067.478-1.067 1.067v1.066c0 .59.478 1.067 1.067 1.067v1.067c-.589 0-1.067.477-1.067 1.066v6.4c0 .59.478 1.067 1.067 1.067v1.067c-.589 0-1.067.477-1.067 1.066v6.4c0 .59.478 1.067 1.067 1.067v1.067c-.589 0-1.067.477-1.067 1.066v3.2c0 .59.478 1.067 1.067 1.067zm1.067-30.933h1.6V1.6a.533.533 0 0 0 1.066 0v-.533H14.4V1.6a.533.533 0 0 0 1.067 0v-.533h1.066V1.6a.533.533 0 0 0 1.067 0v-.533h1.067V1.6a.533.533 0 0 0 1.066 0v-.533h1.6V3.2H10.667V1.067zM9.6 27.733c.59 0 1.067-.477 1.067-1.066V25.6c0-.59-.478-1.067-1.067-1.067v-6.4c.59 0 1.067-.477 1.067-1.066V16c0-.59-.478-1.067-1.067-1.067v-6.4c.59 0 1.067-.477 1.067-1.066V6.4c0-.59-.478-1.067-1.067-1.067V4.267h12.8v1.066c-.589 0-1.067.478-1.067 1.067v1.067c0 .589.478 1.066 1.067 1.066v6.4c-.589 0-1.067.478-1.067 1.067v1.067c0 .589.478 1.066 1.067 1.066v6.4c-.589 0-1.067.478-1.067 1.067v1.067c0 .589.478 1.066 1.067 1.066v3.2h-3.787a2.667 2.667 0 0 0-5.226 0H9.6v-3.2z"/><path d="M12.8 13.334h6.4c.59 0 1.067-.478 1.067-1.067V6.401c0-.59-.478-1.067-1.067-1.067h-6.4c-.589 0-1.067.478-1.067 1.067v5.866c0 .59.478 1.067 1.067 1.067zm0-6.933h6.4v5.866h-6.4V6.401zm0 14.399h1.6c.59 0 1.067-.477 1.067-1.066v-4.267c0-.589-.478-1.067-1.067-1.067h-1.6c-.589 0-1.067.478-1.067 1.067v4.267c0 .589.478 1.066 1.067 1.066zm0-5.333h1.6v4.267h-1.6v-4.267zm6.4-1.067h-1.6c-.589 0-1.067.478-1.067 1.067v4.267c0 .589.478 1.066 1.067 1.066h1.6c.59 0 1.067-.477 1.067-1.066v-4.267c0-.589-.478-1.067-1.067-1.067zm-1.6 5.334v-4.267h1.6v4.267h-1.6zm2.667 6.933v-3.733c0-.59-.478-1.067-1.067-1.067h-6.4c-.589 0-1.067.478-1.067 1.067v3.733c0 .59.478 1.067 1.067 1.067h6.4c.59 0 1.067-.478 1.067-1.067zM12.8 22.934h6.4v3.733h-6.4v-3.733z"/><path d="M14.4 8.533a.533.533 0 1 0 0-1.066.533.533 0 0 0 0 1.066zm3.2 0a.533.533 0 1 0 0-1.066.533.533 0 0 0 0 1.066zM14.4 11.2a.533.533 0 1 0 0-1.067.533.533 0 0 0 0 1.067zm3.2 0a.533.533 0 1 0 0-1.067.533.533 0 0 0 0 1.067z"/></g><defs><clipPath id="a"><path fill="#fff" d="M0 0h32v32H0z"/></clipPath></defs></svg>