<svg width="24" height="24" viewBox="0 0 24 24" fill="none" xmlns="http://www.w3.org/2000/svg"><g clip-path="url(#a)" fill="#A7E200"><path d="M2.8 4.4H.4a.4.4 0 0 1 0-.8h2.4a.4.4 0 0 1 0 .8z"/><path d="M2.8 20.4a.4.4 0 0 1-.4-.4V4a.4.4 0 0 1 .8 0v16a.4.4 0 0 1-.4.4z"/><path d="M2.8 12H1.2a.4.4 0 0 1-.4-.4V8.4a.4.4 0 0 1 .4-.4h1.6c.22 0 .4.18.4.4v3.2a.4.4 0 0 1-.4.4zm-1.2-.8h.8V8.8h-.8v2.4zm1.2 7.2H1.2a.4.4 0 0 1-.4-.4v-3.2a.4.4 0 0 1 .4-.4h1.6c.22 0 .4.18.4.4V18a.4.4 0 0 1-.4.4zm-1.2-.8h.8v-2.4h-.8v2.4zm12.8 2.8H5.6a.4.4 0 0 1-.4-.4v-2.8a.4.4 0 0 1 .4-.4h8.8a.4.4 0 0 1 .4.4V20a.4.4 0 0 1-.4.4zM6 19.6h8v-2H6v2z"/><path d="M7.6 20.4a.4.4 0 0 1-.4-.4v-1.2a.4.4 0 0 1 .8 0V20a.4.4 0 0 1-.4.4zm4.8 0a.4.4 0 0 1-.4-.4v-1.2a.4.4 0 0 1 .8 0V20a.4.4 0 0 1-.4.4zm6 0a.4.4 0 0 1-.4-.4v-1.2a.4.4 0 0 1 .8 0V20a.4.4 0 0 1-.4.4zm-7.6 0a.4.4 0 0 1-.4-.4v-1.2a.4.4 0 0 1 .8 0V20a.4.4 0 0 1-.4.4zm-1.6 0a.4.4 0 0 1-.4-.4v-1.2a.4.4 0 0 1 .8 0V20a.4.4 0 0 1-.4.4z"/><path d="M20 20.4h-3.2a.4.4 0 0 1-.4-.4v-2.8a.4.4 0 0 1 .4-.4H20a.4.4 0 0 1 .4.4V20a.4.4 0 0 1-.4.4zm-2.8-.8h2.4v-2h-2.4v2zM2.8 7.2H1.2a.4.4 0 0 1 0-.8h1.6a.4.4 0 0 1 0 .8zm0 6.4H1.2a.4.4 0 0 1 0-.8h1.6a.4.4 0 0 1 0 .8zM8.4 16A4.405 4.405 0 0 1 4 11.6c0-2.426 1.974-4.4 4.4-4.4s4.4 1.974 4.4 4.4S10.826 16 8.4 16zm0-8a3.604 3.604 0 0 0-3.6 3.6c0 1.985 1.615 3.6 3.6 3.6s3.6-1.615 3.6-3.6S10.385 8 8.4 8z"/><path d="M8.4 13.2a1.6 1.6 0 1 1 1.6-1.6c0 .882-.718 1.6-1.6 1.6zm0-2.4a.8.8 0 1 0 .001 1.601A.8.8 0 0 0 8.4 10.8z"/><path d="M21.6 17.6H2.8a.4.4 0 0 1-.4-.4V6c0-.22.18-.4.4-.4h18.8C22.925 5.6 24 6.676 24 8v7.2c0 1.324-1.076 2.4-2.4 2.4zm-18.4-.8h18.4c.883 0 1.6-.718 1.6-1.6V8a1.6 1.6 0 0 0-1.6-1.6H3.2v10.4z"/><path d="M8.4 10.8a.4.4 0 0 1-.4-.4c0-.862-1.1-1.6-2-1.6A.4.4 0 0 1 6 8c1.295 0 2.8 1.048 2.8 2.4a.4.4 0 0 1-.4.4zm2.4 4.4c-1.295 0-2.8-1.05-2.8-2.4a.4.4 0 0 1 .8 0c0 .861 1.1 1.6 2 1.6a.4.4 0 0 1 0 .8zm-5.6-.8a.4.4 0 0 1-.4-.4c0-1.295 1.048-2.8 2.4-2.8a.4.4 0 0 1 0 .8c-.862 0-1.6 1.1-1.6 2a.4.4 0 0 1-.4.4zM9.6 12a.4.4 0 0 1 0-.8c.862 0 1.6-1.1 1.6-2a.4.4 0 0 1 .8 0c0 1.295-1.048 2.8-2.4 2.8z"/><path d="M4.44 11.435a.399.399 0 0 1-.282-.683c.445-.445 1.114-.76 1.79-.842.763-.094 1.433.106 1.886.559a.4.4 0 0 1-.565.566c-.272-.272-.717-.392-1.224-.331-.505.06-.998.29-1.321.613a.403.403 0 0 1-.284.118zm6.052 1.878c-.613 0-1.146-.2-1.526-.582a.4.4 0 0 1 .565-.565c.272.271.718.392 1.225.33.504-.06.998-.29 1.32-.613a.4.4 0 1 1 .566.566c-.445.445-1.114.76-1.79.841a2.879 2.879 0 0 1-.36.023zM7.835 15.96a.399.399 0 0 1-.283-.118c-.916-.915-1.238-2.721-.283-3.677a.4.4 0 1 1 .566.566c-.61.61-.354 1.909.282 2.545a.4.4 0 0 1-.282.684zm1.413-4.808a.399.399 0 0 1-.283-.683c.61-.61.354-1.91-.282-2.546a.4.4 0 1 1 .565-.565c.916.916 1.238 2.721.283 3.677a.4.4 0 0 1-.283.117zM18 16a4.405 4.405 0 0 1-4.4-4.4c0-2.426 1.974-4.4 4.4-4.4s4.4 1.974 4.4 4.4S20.426 16 18 16zm0-8a3.604 3.604 0 0 0-3.6 3.6c0 1.985 1.615 3.6 3.6 3.6s3.6-1.615 3.6-3.6S19.985 8 18 8z"/><path d="M18 13.2c-.882 0-1.6-.718-1.6-1.6a1.6 1.6 0 1 1 1.6 1.6zm0-2.4a.8.8 0 1 0 .002 1.601A.8.8 0 0 0 18 10.8z"/><path d="M18 10.8a.4.4 0 0 1-.4-.4c0-.862-1.1-1.6-2-1.6a.4.4 0 0 1 0-.8c1.295 0 2.8 1.048 2.8 2.4a.4.4 0 0 1-.4.4zm2.4 4.4c-1.295 0-2.8-1.049-2.8-2.4a.4.4 0 0 1 .8 0c0 .861 1.1 1.6 2 1.6a.4.4 0 0 1 0 .8zm-5.6-.8a.4.4 0 0 1-.4-.4c0-1.295 1.049-2.8 2.4-2.8a.4.4 0 0 1 0 .8c-.862 0-1.6 1.1-1.6 2a.4.4 0 0 1-.4.4zm4.4-2.4a.4.4 0 0 1 0-.8c.862 0 1.6-1.1 1.6-2a.4.4 0 0 1 .8 0c0 1.295-1.049 2.8-2.4 2.8z"/><path d="M14.04 11.435a.4.4 0 0 1-.282-.683c.445-.445 1.114-.76 1.79-.842.763-.094 1.434.106 1.886.559a.4.4 0 0 1-.565.566c-.271-.272-.718-.392-1.224-.331-.505.06-.998.29-1.321.613a.403.403 0 0 1-.284.118zm6.052 1.878c-.613 0-1.146-.2-1.526-.582a.4.4 0 0 1 .565-.565c.272.271.718.392 1.225.33.504-.06.998-.29 1.32-.613a.4.4 0 1 1 .566.566c-.445.445-1.115.76-1.79.841a2.88 2.88 0 0 1-.36.023zm-2.658 2.647a.399.399 0 0 1-.282-.118c-.916-.915-1.239-2.721-.283-3.677a.4.4 0 1 1 .566.566c-.61.61-.354 1.909.282 2.545a.4.4 0 0 1-.282.684zm1.414-4.808a.399.399 0 0 1-.282-.683c.609-.61.354-1.91-.283-2.546a.4.4 0 1 1 .565-.565c.916.916 1.239 2.721.283 3.677a.4.4 0 0 1-.283.117z"/></g><defs><clipPath id="a"><path d="M0 0h24v24H0V0z" fill="#fff"/></clipPath></defs></svg>